<?xml version="1.0" encoding="UTF-8"?>
<svg width="97px" height="41px" viewBox="0 0 97 41" version="1.1" xmlns="http://www.w3.org/2000/svg" xmlns:xlink="http://www.w3.org/1999/xlink">
    <!-- Generator: Sketch 54.1 (76490) - https://sketchapp.com -->
    <title>Group</title>
    <desc>Created with Sketch.</desc>
    <g id="Page-1" stroke="none" stroke-width="1" fill="none" fill-rule="evenodd">
        <rect id="Rectangle" fill="#F3F3F3" x="-24" y="-26" width="831" height="524"></rect>
        <rect id="Rectangle" stroke="#E7E7E7" fill="#F3F3F3" x="-23.5" y="-25.5" width="830" height="88"></rect>
        <g id="Group" transform="translate(-1.000000, 0.000000)" fill-rule="nonzero">
            <path d="M10.6083551,10.0261097 L10.7127937,10.0261097 L14.1331593,0.156657963 L20.1122715,0.156657963 L20.1122715,18.45953 L16.3002611,18.45953 L16.3002611,4.90861619 L16.1958225,4.90861619 L12.1227154,16.2663185 L8.83289817,16.2663185 L4.81201044,4.90861619 L4.65535248,4.90861619 L4.65535248,18.45953 L1,18.45953 L1,0.156657963 L7.13577023,0.156657963 L10.6083551,10.0261097 Z M30.9477807,14.6475196 L30.9477807,12.5587467 C28.3629243,12.3759791 27.0835509,12.9765013 27.0835509,14.2558747 C27.0835509,15.0913838 27.6579634,15.691906 28.6762402,15.691906 C29.6422977,15.691906 30.5039164,15.2480418 30.9477807,14.6475196 Z M28.8067885,3.4464752 C32.5665796,3.4464752 34.6553525,4.75195822 34.6553525,8.32898172 L34.6553525,14.229765 C34.6553525,15.0652742 34.9686684,15.4308094 35.6736292,15.4308094 L36.0913838,15.4308094 L36.0913838,18.1462141 C35.464752,18.537859 34.7859008,18.6422977 34.1331593,18.6422977 C32.7232376,18.6422977 31.9138381,17.9634465 31.4699739,17.0496084 L31.3655352,17.0496084 C30.8172324,17.7806789 29.7206266,18.694517 27.6057441,18.694517 C24.7336815,18.694517 23.2454308,16.7362924 23.2454308,14.6214099 C23.2454308,11.227154 26.3002611,9.66057441 30.9477807,9.89556136 L30.9477807,8.74673629 C30.9477807,7.10182768 30.0339426,6.60574413 28.8328982,6.60574413 C27.4229765,6.60574413 26.6657963,7.4151436 26.3002611,8.2767624 L23.5065274,6.21409922 C24.0809399,5.40469974 25.5430809,3.4464752 28.8067885,3.4464752 Z M44.7075718,14.3603133 C44.7075718,12.2193211 37.7624021,12.924282 37.7624021,8.0156658 C37.7624021,5.61357702 39.8250653,3.4464752 43.2454308,3.4464752 C45.9086162,3.4464752 47.6057441,4.38642298 48.5718016,5.50913838 L46.0391645,7.98955614 C45.5169713,7.38903394 44.4986945,6.60574413 43.1409922,6.60574413 C42.2532637,6.60574413 41.6788512,7.07571802 41.6788512,7.75456919 C41.6788512,9.97389034 48.6240209,9.19060052 48.6240209,14.1253264 C48.6240209,16.0835509 47.0835509,18.7206266 42.8015666,18.7206266 C39.5639687,18.7206266 37.6057441,17.3629243 36.7963446,16.5013055 L39.1462141,13.7859008 C39.7989556,14.5430809 41.2349869,15.613577 43.0104439,15.613577 C44.2375979,15.613577 44.7075718,15.0391645 44.7075718,14.3603133 Z M55.9608355,18.5900783 C53.4281984,18.5900783 51.6005222,17.310705 51.6005222,13.7336815 L51.6005222,6.71018277 L49.7206266,6.71018277 L49.7206266,4.25587467 L51.6266319,3.47258486 L52.9843342,1.77635684e-15 L55.4908616,1.77635684e-15 L55.4908616,3.7075718 L59.1723238,3.7075718 L59.1723238,6.71018277 L55.4908616,6.71018277 L55.4908616,13.8381201 C55.4908616,14.8563969 56.0652742,15.3785901 57.0313316,15.3785901 C57.6579634,15.3785901 58.4673629,15.1697128 59.0417755,14.7258486 L60.0600522,17.6762402 C59.5639687,18.0417755 58.4151436,18.5900783 55.9608355,18.5900783 Z M71.7049608,14.308094 L73.4281984,17.1018277 C72.2793734,18.0417755 70.843342,18.7467363 68.0234987,18.7467363 C63.3759791,18.7467363 61,16.1357702 61,11.0443864 C61,6.26631854 63.6631854,3.42036554 67.9190601,3.42036554 C71.6788512,3.42036554 73.845953,5.79634465 73.845953,9.39947781 C73.845953,10.156658 73.8198433,10.8877285 73.6631854,12.0365535 L64.8642298,12.0365535 C64.9164491,14.3603133 65.9608355,15.6396867 68.4673629,15.6396867 C70.0600522,15.6396867 71.156658,14.8825065 71.7049608,14.308094 Z M67.8146214,6.39686684 C66.0391645,6.39686684 64.9947781,7.70234987 64.9425587,9.42558747 L70.1383812,9.42558747 L70.1383812,9.03394256 C70.1383812,7.31070496 69.4073107,6.39686684 67.8146214,6.39686684 Z M85.7519582,3.52480418 L85.7519582,7.4151436 C85.229765,7.31070496 84.5770235,7.2845953 84.0548303,7.2845953 C82.8276762,7.2845953 81.4699739,7.75456919 80.6083551,8.45953003 L80.6083551,18.45953 L76.691906,18.45953 L76.691906,3.7075718 L79.772846,3.7075718 L80.5822454,5.87467363 L80.6866841,5.87467363 C81.2872063,4.4386423 82.5665796,3.39425587 84.4986945,3.39425587 C84.9164491,3.39425587 85.4125326,3.4464752 85.7519582,3.52480418 Z M94.002611,14.3603133 C94.002611,12.2193211 87.0574413,12.924282 87.0574413,8.0156658 C87.0574413,5.61357702 89.1201044,3.4464752 92.54047,3.4464752 C95.2036554,3.4464752 96.9007833,4.38642298 97.8668407,5.50913838 L95.3342037,7.98955614 C94.8120104,7.38903394 93.7937337,6.60574413 92.4360313,6.60574413 C91.5483029,6.60574413 90.9738903,7.07571802 90.9738903,7.75456919 C90.9738903,9.97389034 97.9190601,9.19060052 97.9190601,14.1253264 C97.9190601,16.0835509 96.3785901,18.7206266 92.0966057,18.7206266 C88.8590078,18.7206266 86.9007833,17.3629243 86.0913838,16.5013055 L88.4412533,13.7859008 C89.0939948,14.5430809 90.5300261,15.613577 92.305483,15.613577 C93.5326371,15.613577 94.002611,15.0391645 94.002611,14.3603133 Z" id="Masters" fill="#553909"></path>
            <path d="M5.5613577,35.8511749 L5.5613577,35.9295039 L8.66840731,35.772846 L12.4804178,35.772846 L12.4804178,38.9321149 L1.61879896,38.9321149 L0.966057441,35.7467363 C3.7075718,33.1357702 5.82245431,30.9947781 7.04960836,29.2976501 C7.85900783,28.1488251 8.30287206,27.2088773 8.30287206,26.3472585 C8.30287206,24.9373368 7.59791123,24.3890339 6.65796345,24.3890339 C5.45691906,24.3890339 4.98694517,25.5117493 4.93472585,26.7127937 L1.07049608,26.0339426 C1.35770235,23.3446475 3.08093995,21.151436 6.86684073,21.151436 C10.2872063,21.151436 12.2454308,22.9007833 12.2454308,25.8250653 C12.2454308,27.7049608 11.6710183,29.3498695 10.078329,31.3342037 C9.42558747,32.1174935 8.64229765,32.9791123 7.70234987,33.9190601 C7.07571802,34.5195822 6.34464752,35.1462141 5.5613577,35.8511749 Z M20.6005222,39.1932115 C16.1096606,39.1932115 14.3603133,36.2689295 14.3603133,30.2898172 C14.3603133,23.9712794 16.6579634,21.151436 20.9660574,21.151436 C25.4046997,21.151436 27.232376,24.075718 27.232376,30.1592689 C27.232376,36.3733681 24.8563969,39.1932115 20.6005222,39.1932115 Z M18.1984334,30.1592689 C18.1984334,34.1801567 18.9817232,35.9556136 20.8355091,35.9556136 C22.8981723,35.9556136 23.4203655,34.232376 23.4203655,30.2898172 C23.4203655,26.2950392 22.5848564,24.3890339 20.7049608,24.3890339 C18.6684073,24.3890339 18.1984334,26.1644909 18.1984334,30.1592689 Z M33.7336815,35.8511749 L33.7336815,35.9295039 L36.8407311,35.772846 L40.6527415,35.772846 L40.6527415,38.9321149 L29.7911227,38.9321149 L29.1383812,35.7467363 C31.8798956,33.1357702 33.9947781,30.9947781 35.2219321,29.2976501 C36.0313316,28.1488251 36.4751958,27.2088773 36.4751958,26.3472585 C36.4751958,24.9373368 35.770235,24.3890339 34.8302872,24.3890339 C33.6292428,24.3890339 33.1592689,25.5117493 33.1070496,26.7127937 L29.2428198,26.0339426 C29.5300261,23.3446475 31.2532637,21.151436 35.0391645,21.151436 C38.45953,21.151436 40.4177546,22.9007833 40.4177546,25.8250653 C40.4177546,27.7049608 39.843342,29.3498695 38.2506527,31.3342037 C37.5979112,32.1174935 36.8146214,32.9791123 35.8746736,33.9190601 C35.2480418,34.5195822 34.5169713,35.1462141 33.7336815,35.8511749 Z M48.772846,39.1932115 C44.2819843,39.1932115 42.5326371,36.2689295 42.5326371,30.2898172 C42.5326371,23.9712794 44.8302872,21.151436 49.1383812,21.151436 C53.5770235,21.151436 55.4046997,24.075718 55.4046997,30.1592689 C55.4046997,36.3733681 53.0287206,39.1932115 48.772846,39.1932115 Z M46.3707572,30.1592689 C46.3707572,34.1801567 47.154047,35.9556136 49.0078329,35.9556136 C51.0704961,35.9556136 51.5926893,34.232376 51.5926893,30.2898172 C51.5926893,26.2950392 50.7571802,24.3890339 48.8772846,24.3890339 C46.8407311,24.3890339 46.3707572,26.1644909 46.3707572,30.1592689 Z" id="2020" fill="#A77218"></path>
            <path d="M67.7911227,28.8772846 C69.54047,29.0861619 71.3420366,30.2610966 71.3420366,32.845953 C71.3420366,35.2219321 70.1409922,38.45953 64.0574413,38.45953 L58,38.45953 L58,20.156658 L64.5535248,20.156658 C67.7911227,20.156658 70.4543081,21.227154 70.4543081,24.9086162 C70.4543081,26.9712794 69.1749347,28.2767624 67.7911227,28.772846 L67.7911227,28.8772846 Z M66.616188,25.4569191 C66.616188,24.3342037 65.9634465,23.4464752 64.0835509,23.4464752 L61.9425587,23.4464752 L61.9425587,27.4934726 L63.926893,27.4934726 C65.8590078,27.4934726 66.616188,26.5013055 66.616188,25.4569191 Z M64.6840731,35.1697128 C66.694517,35.1697128 67.2950392,34.0208877 67.2950392,32.9765013 C67.2950392,31.383812 65.9634465,30.7832898 64.4751958,30.7832898 L61.9425587,30.7832898 L61.9425587,35.1697128 L64.6840731,35.1697128 Z M84.4490862,34.308094 L86.1723238,37.1018277 C85.0234987,38.0417755 83.5874674,38.7467363 80.767624,38.7467363 C76.1201044,38.7467363 73.7441253,36.1357702 73.7441253,31.0443864 C73.7441253,26.2663185 76.4073107,23.4203655 80.6631854,23.4203655 C84.4229765,23.4203655 86.5900783,25.7963446 86.5900783,29.3994778 C86.5900783,30.156658 86.5639687,30.8877285 86.4073107,32.0365535 L77.6083551,32.0365535 C77.6605744,34.3603133 78.7049608,35.6396867 81.2114883,35.6396867 C82.8041775,35.6396867 83.9007833,34.8825065 84.4490862,34.308094 Z M80.5587467,26.3968668 C78.7832898,26.3968668 77.7389034,27.7023499 77.6866841,29.4255875 L82.8825065,29.4255875 L82.8825065,29.0339426 C82.8825065,27.310705 82.151436,26.3968668 80.5587467,26.3968668 Z M94.1096606,38.5900783 C91.5770235,38.5900783 89.7493473,37.310705 89.7493473,33.7336815 L89.7493473,26.7101828 L87.8694517,26.7101828 L87.8694517,24.2558747 L89.7754569,23.4725849 L91.1331593,20 L93.6396867,20 L93.6396867,23.7075718 L97.3211488,23.7075718 L97.3211488,26.7101828 L93.6396867,26.7101828 L93.6396867,33.8381201 C93.6396867,34.8563969 94.2140992,35.3785901 95.1801567,35.3785901 C95.8067885,35.3785901 96.616188,35.1697128 97.1906005,34.7258486 L98.2088773,37.6762402 C97.7127937,38.0417755 96.5639687,38.5900783 94.1096606,38.5900783 Z" id="Bet" fill="#F4AB30"></path>
        </g>
    </g>
</svg>