<svg height="512pt" viewBox="0 0 512 512" width="512pt" xmlns="http://www.w3.org/2000/svg"><path d="m416 512h-320c-53.023438 0-96-42.976562-96-96v-320c0-53.023438 42.976562-96 96-96h320c53.023438 0 96 42.976562 96 96v320c0 53.023438-42.976562 96-96 96zm0 0" fill="#f5e6fe"/><path d="m213.328125 170.671875h10.671875c5.886719 0 10.671875 4.785156 10.671875 10.671875s-4.785156 10.65625-10.671875 10.65625h-10.671875c-23.535156 0-42.671875 19.136719-42.671875 42.671875v21.871094c1.726562-.351563 3.519531-.542969 5.34375-.542969h32c14.703125 0 26.671875 11.96875 26.671875 26.671875v32c0 14.703125-11.953125 26.671875-26.671875 26.671875h-32c-14.703125 0-26.671875-11.96875-26.671875-26.671875v-80c0-35.296875 28.71875-64 64-64zm0 0" fill="#be63f9"/><path d="m341.328125 170.671875h10.671875c5.886719 0 10.671875 4.785156 10.671875 10.671875s-4.769531 10.65625-10.671875 10.65625h-10.671875c-23.535156 0-42.671875 19.136719-42.671875 42.671875v21.871094c1.726562-.351563 3.519531-.542969 5.34375-.542969h32c14.703125 0 26.671875 11.96875 26.671875 26.671875v32c0 14.703125-11.953125 26.671875-26.671875 26.671875h-32c-14.703125 0-26.671875-11.96875-26.671875-26.671875v-80c0-35.296875 28.71875-64 64-64zm0 0" fill="#d9a4fc"/></svg>