<svg height="512pt" viewBox="0 0 512 512" width="512pt" xmlns="http://www.w3.org/2000/svg"><path d="m416 512h-320c-53.023438 0-96-42.976562-96-96v-320c0-53.023438 42.976562-96 96-96h320c53.023438 0 96 42.976562 96 96v320c0 53.023438-42.976562 96-96 96zm0 0" fill="#e3f8fa"/><path d="m256 285.328125c0-16.175781 13.152344-29.328125 29.328125-29.328125h56v-98.671875c0-16.175781-13.152344-29.328125-29.328125-29.328125h-154.671875c-16.175781 0-29.328125 13.152344-29.328125 29.328125v154.671875c0 16.175781 13.152344 29.328125 29.328125 29.328125h98.671875zm0 0" fill="#26c6da"/><path d="m380.878906 365.792969-53.007812-53.007813 21.792968-21.792968c2.289063-2.289063 2.976563-5.726563 1.742188-8.71875-1.230469-2.992188-4.160156-4.945313-7.390625-4.945313h-58.671875c-4.414062 0-8 3.582031-8 8v58.671875c0 3.230469 1.953125 6.144531 4.945312 7.390625.976563.417969 2.015626.609375 3.039063.609375 2.078125 0 4.128906-.816406 5.664063-2.335938l21.792968-21.792968 53.007813 53.007812c2.078125 2.082032 4.816406 3.121094 7.535156 3.121094s5.457031-1.039062 7.535156-3.121094c4.175781-4.175781 4.175781-10.925781.015625-15.085937zm0 0" fill="#8ce1eb"/></svg>