<svg height="512pt" viewBox="0 0 512 512" width="512pt" xmlns="http://www.w3.org/2000/svg"><path d="m416 512h-320c-53.023438 0-96-42.976562-96-96v-320c0-53.023438 42.976562-96 96-96h320c53.023438 0 96 42.976562 96 96v320c0 53.023438-42.976562 96-96 96zm0 0" fill="#e3f8fa"/><path d="m322.769531 288.222656c-2.738281 0-5.457031-1.039062-7.539062-3.117187-4.160157-4.160157-4.160157-10.914063 0-15.089844l21.554687-21.550781c9.824219-9.746094 15.214844-22.738282 15.214844-36.625 0-28.574219-23.246094-51.839844-51.839844-51.839844-13.886718 0-26.878906 5.390625-36.59375 15.183594l-21.582031 21.585937c-4.160156 4.160157-10.914063 4.160157-15.089844 0-4.175781-4.160156-4.160156-10.914062 0-15.089843l21.554688-21.550782c13.710937-13.839844 32.078125-21.472656 51.695312-21.472656 40.351563 0 73.167969 32.816406 73.167969 73.183594 0 19.632812-7.632812 38-21.503906 51.746094l-21.503906 21.503906c-2.066407 2.078125-4.800782 3.132812-7.535157 3.132812zm0 0" fill="#26c6da"/><path d="m211.839844 373.328125c-40.351563 0-73.167969-32.816406-73.167969-73.183594 0-19.617187 7.648437-37.984375 21.503906-51.730469l21.519531-21.503906c4.160157-4.15625 10.914063-4.15625 15.089844 0 4.160156 4.160156 4.160156 10.914063 0 15.089844l-21.554687 21.535156c-9.839844 9.746094-15.230469 22.738282-15.230469 36.625 0 28.574219 23.246094 51.839844 51.839844 51.839844 13.886718 0 26.878906-5.390625 36.574218-15.183594l21.585938-21.585937c4.160156-4.160157 10.910156-4.160157 15.089844 0 4.175781 4.160156 4.15625 10.914062 0 15.089843l-21.554688 21.550782c-13.695312 13.824218-32.0625 21.457031-51.695312 21.457031zm0 0" fill="#26c6da"/><g fill="#8ce1eb"><path d="m278.609375 244.046875c-2.738281 0-5.457031-1.039063-7.539063-3.117187-4.160156-4.160157-4.160156-10.914063 0-15.089844l20.050782-20.046875c4.160156-4.160157 10.910156-4.160157 15.085937 0 4.175781 4.160156 4.160157 10.910156 0 15.085937l-20.046875 20.050782c-2.082031 2.078124-4.816406 3.117187-7.550781 3.117187zm0 0"/><path d="m213.328125 309.328125c-2.734375 0-5.457031-1.039063-7.535156-3.121094-4.160157-4.160156-4.160157-10.910156 0-15.085937l20.046875-20.050782c4.160156-4.160156 10.914062-4.160156 15.089844 0 4.175781 4.160157 4.160156 10.914063 0 15.089844l-20.050782 20.046875c-2.09375 2.082031-4.816406 3.121094-7.550781 3.121094zm0 0"/><path d="m362.671875 373.328125c-2.734375 0-5.457031-1.039063-7.535156-3.121094l-213.34375-213.328125c-4.160157-4.160156-4.160157-10.910156 0-15.085937 4.160156-4.175781 10.910156-4.160157 15.085937 0l213.328125 213.328125c4.160157 4.160156 4.160157 10.910156 0 15.085937-2.078125 2.082031-4.816406 3.121094-7.535156 3.121094zm0 0"/></g></svg>